<svg xmlns="http://www.w3.org/2000/svg" width="16" height="16" viewBox="0 0 16 16" shape-rendering="crispEdges">
  <!-- stemma app icon, 16 px drawing. Pixel-placed (whole-pixel rects, crispEdges), so it is rendered only at its own size and never resampled. The same mark as icon_large.svg: four tilted notes on an up-stem, each flowing out as a stepped wave. Rendered by scripts/generate_app_icons.py. -->
  <rect width="16" height="16" rx="3.5" fill="#1e1e2e"/><rect x="0.5" y="0.5" width="15" height="15" rx="3.0" fill="none" stroke="#45475a" stroke-width="1"/><rect x="7" y="3" width="2" height="1" fill="#bfa3dc"/><rect x="9" y="4" width="2" height="1" fill="#bfa3dc"/><rect x="11" y="3" width="2" height="1" fill="#bfa3dc"/><rect x="13" y="2" width="1" height="1" fill="#bfa3dc"/><rect x="3" y="2" width="1" height="1" fill="#bfa3dc" opacity="0.45"/><rect x="4" y="2" width="1" height="1" fill="#bfa3dc"/><rect x="5" y="2" width="1" height="1" fill="#bfa3dc"/><rect x="6" y="2" width="1" height="1" fill="#bfa3dc"/><rect x="2" y="3" width="1" height="1" fill="#bfa3dc"/><rect x="3" y="3" width="1" height="1" fill="#bfa3dc"/><rect x="4" y="3" width="1" height="1" fill="#bfa3dc"/><rect x="5" y="3" width="1" height="1" fill="#bfa3dc"/><rect x="6" y="3" width="1" height="1" fill="#bfa3dc"/><rect x="2" y="4" width="1" height="1" fill="#bfa3dc"/><rect x="3" y="4" width="1" height="1" fill="#bfa3dc"/><rect x="4" y="4" width="1" height="1" fill="#bfa3dc"/><rect x="5" y="4" width="1" height="1" fill="#bfa3dc" opacity="0.45"/><rect x="7" y="6" width="2" height="1" fill="#e4ad6e"/><rect x="9" y="7" width="2" height="1" fill="#e4ad6e"/><rect x="11" y="6" width="2" height="1" fill="#e4ad6e"/><rect x="13" y="5" width="1" height="1" fill="#e4ad6e"/><rect x="3" y="5" width="1" height="1" fill="#e4ad6e" opacity="0.45"/><rect x="4" y="5" width="1" height="1" fill="#e4ad6e"/><rect x="5" y="5" width="1" height="1" fill="#e4ad6e"/><rect x="6" y="5" width="1" height="1" fill="#e4ad6e"/><rect x="2" y="6" width="1" height="1" fill="#e4ad6e"/><rect x="3" y="6" width="1" height="1" fill="#e4ad6e"/><rect x="4" y="6" width="1" height="1" fill="#e4ad6e"/><rect x="5" y="6" width="1" height="1" fill="#e4ad6e"/><rect x="6" y="6" width="1" height="1" fill="#e4ad6e"/><rect x="2" y="7" width="1" height="1" fill="#e4ad6e"/><rect x="3" y="7" width="1" height="1" fill="#e4ad6e"/><rect x="4" y="7" width="1" height="1" fill="#e4ad6e"/><rect x="5" y="7" width="1" height="1" fill="#e4ad6e" opacity="0.45"/><rect x="7" y="9" width="2" height="1" fill="#d4849a"/><rect x="9" y="10" width="2" height="1" fill="#d4849a"/><rect x="11" y="9" width="2" height="1" fill="#d4849a"/><rect x="13" y="8" width="1" height="1" fill="#d4849a"/><rect x="3" y="8" width="1" height="1" fill="#d4849a" opacity="0.45"/><rect x="4" y="8" width="1" height="1" fill="#d4849a"/><rect x="5" y="8" width="1" height="1" fill="#d4849a"/><rect x="6" y="8" width="1" height="1" fill="#d4849a"/><rect x="2" y="9" width="1" height="1" fill="#d4849a"/><rect x="3" y="9" width="1" height="1" fill="#d4849a"/><rect x="4" y="9" width="1" height="1" fill="#d4849a"/><rect x="5" y="9" width="1" height="1" fill="#d4849a"/><rect x="6" y="9" width="1" height="1" fill="#d4849a"/><rect x="2" y="10" width="1" height="1" fill="#d4849a"/><rect x="3" y="10" width="1" height="1" fill="#d4849a"/><rect x="4" y="10" width="1" height="1" fill="#d4849a"/><rect x="5" y="10" width="1" height="1" fill="#d4849a" opacity="0.45"/><rect x="7" y="12" width="2" height="1" fill="#4fb8b8"/><rect x="9" y="13" width="2" height="1" fill="#4fb8b8"/><rect x="11" y="12" width="2" height="1" fill="#4fb8b8"/><rect x="13" y="11" width="1" height="1" fill="#4fb8b8"/><rect x="3" y="11" width="1" height="1" fill="#4fb8b8" opacity="0.45"/><rect x="4" y="11" width="1" height="1" fill="#4fb8b8"/><rect x="5" y="11" width="1" height="1" fill="#4fb8b8"/><rect x="6" y="11" width="1" height="1" fill="#4fb8b8"/><rect x="2" y="12" width="1" height="1" fill="#4fb8b8"/><rect x="3" y="12" width="1" height="1" fill="#4fb8b8"/><rect x="4" y="12" width="1" height="1" fill="#4fb8b8"/><rect x="5" y="12" width="1" height="1" fill="#4fb8b8"/><rect x="6" y="12" width="1" height="1" fill="#4fb8b8"/><rect x="2" y="13" width="1" height="1" fill="#4fb8b8"/><rect x="3" y="13" width="1" height="1" fill="#4fb8b8"/><rect x="4" y="13" width="1" height="1" fill="#4fb8b8"/><rect x="5" y="13" width="1" height="1" fill="#4fb8b8" opacity="0.45"/><rect x="6" y="1" width="1" height="12" fill="#cdd6f4"/></svg>