<svg xmlns="http://www.w3.org/2000/svg" width="30" height="30" viewBox="0 0 30 30" shape-rendering="crispEdges">
  <!-- stemma app icon, 30 px drawing. Pixel-placed (whole-pixel rects, crispEdges), so it is rendered only at its own size and never resampled. The small form of the logo: one note whose flag is three coloured waves. Generated from a pixel map; rendered by scripts/generate_app_icons.py. -->
  <rect width="30" height="30" rx="6.3" fill="#1e1e2e"/><rect x="0.5" y="0.5" width="29" height="29" rx="5.8" fill="none" stroke="#45475a" stroke-width="1"/>
  <rect x="16" y="4" width="2" height="1" fill="#bfa3dc"/><rect x="25" y="4" width="1" height="1" fill="#bfa3dc"/><rect x="13" y="5" width="2" height="1" fill="#cdd6f4"/><rect x="15" y="5" width="4" height="1" fill="#bfa3dc"/><rect x="24" y="5" width="2" height="1" fill="#bfa3dc"/><rect x="13" y="6" width="2" height="1" fill="#cdd6f4"/><rect x="15" y="6" width="1" height="1" fill="#bfa3dc"/><rect x="18" y="6" width="3" height="1" fill="#bfa3dc"/><rect x="23" y="6" width="2" height="1" fill="#bfa3dc"/><rect x="13" y="7" width="2" height="1" fill="#cdd6f4"/><rect x="19" y="7" width="5" height="1" fill="#bfa3dc"/><rect x="13" y="8" width="2" height="1" fill="#cdd6f4"/><rect x="16" y="8" width="2" height="1" fill="#e4ad6e"/><rect x="21" y="8" width="2" height="1" fill="#bfa3dc"/><rect x="25" y="8" width="1" height="1" fill="#e4ad6e"/><rect x="13" y="9" width="2" height="1" fill="#cdd6f4"/><rect x="15" y="9" width="4" height="1" fill="#e4ad6e"/><rect x="24" y="9" width="2" height="1" fill="#e4ad6e"/><rect x="13" y="10" width="2" height="1" fill="#cdd6f4"/><rect x="15" y="10" width="1" height="1" fill="#e4ad6e"/><rect x="18" y="10" width="3" height="1" fill="#e4ad6e"/><rect x="23" y="10" width="2" height="1" fill="#e4ad6e"/><rect x="13" y="11" width="2" height="1" fill="#cdd6f4"/><rect x="19" y="11" width="5" height="1" fill="#e4ad6e"/><rect x="13" y="12" width="2" height="1" fill="#cdd6f4"/><rect x="16" y="12" width="2" height="1" fill="#d4849a"/><rect x="21" y="12" width="2" height="1" fill="#e4ad6e"/><rect x="25" y="12" width="1" height="1" fill="#d4849a"/><rect x="13" y="13" width="2" height="1" fill="#cdd6f4"/><rect x="15" y="13" width="4" height="1" fill="#d4849a"/><rect x="24" y="13" width="2" height="1" fill="#d4849a"/><rect x="13" y="14" width="2" height="1" fill="#cdd6f4"/><rect x="15" y="14" width="1" height="1" fill="#d4849a"/><rect x="18" y="14" width="3" height="1" fill="#d4849a"/><rect x="23" y="14" width="2" height="1" fill="#d4849a"/><rect x="13" y="15" width="2" height="1" fill="#cdd6f4"/><rect x="19" y="15" width="5" height="1" fill="#d4849a"/><rect x="13" y="16" width="2" height="1" fill="#cdd6f4"/><rect x="21" y="16" width="2" height="1" fill="#d4849a"/><rect x="13" y="17" width="2" height="1" fill="#cdd6f4"/><rect x="9" y="18" width="4" height="1" fill="#4fb8b8"/><rect x="13" y="18" width="2" height="1" fill="#cdd6f4"/><rect x="7" y="19" width="6" height="1" fill="#4fb8b8"/><rect x="13" y="19" width="2" height="1" fill="#cdd6f4"/><rect x="6" y="20" width="7" height="1" fill="#4fb8b8"/><rect x="13" y="20" width="2" height="1" fill="#cdd6f4"/><rect x="6" y="21" width="7" height="1" fill="#4fb8b8"/><rect x="13" y="21" width="2" height="1" fill="#cdd6f4"/><rect x="6" y="22" width="9" height="1" fill="#4fb8b8"/><rect x="6" y="23" width="8" height="1" fill="#4fb8b8"/><rect x="6" y="24" width="7" height="1" fill="#4fb8b8"/></svg>
