<svg xmlns="http://www.w3.org/2000/svg" width="300" height="185" viewBox="0 0 300 185">
  <!-- stemma main logo — light variant -->
  <text x="124" y="28" font-family="Palatino Linotype, Palatino, Georgia, serif" font-size="28" font-style="italic" fill="#555" letter-spacing="1.5" text-anchor="middle">stemma</text>
  <line x1="18" y1="48" x2="228" y2="48" stroke="#555" stroke-width="1.0" opacity="0.35"/>
  <line x1="18" y1="63" x2="228" y2="63" stroke="#555" stroke-width="1.0" opacity="0.35"/>
  <line x1="18" y1="78" x2="228" y2="78" stroke="#555" stroke-width="1.0" opacity="0.35"/>
  <line x1="18" y1="93" x2="228" y2="93" stroke="#555" stroke-width="1.0" opacity="0.35"/>
  <line x1="18" y1="108" x2="228" y2="108" stroke="#555" stroke-width="1.0" opacity="0.35"/>
  <g transform="translate(22,93) scale(0.056,-0.056)" fill="#555">
    <path d="M376 415Q375 424 376 427Q378 430 382 434Q465 510 518 605Q570 700 572 815Q572 881 555 942Q538 1002 507 1048Q495 1066 480 1081Q464 1097 455 1098Q444 1097 425 1082Q406 1067 390 1050Q335 987 313 903Q291 819 292 739Q292 695 296 651Q301 607 306 575Q308 567 307 562Q306 558 297 551Q184 463 95 350Q5 237 0 87Q0 -48 90 -148Q180 -247 364 -252Q382 -252 400 -250Q418 -249 433 -246Q441 -244 444 -245Q447 -246 448 -255Q458 -307 466 -363Q474 -419 475 -456Q471 -563 418 -594Q365 -625 316 -622Q276 -621 256 -612Q236 -603 236 -593Q236 -588 243 -584Q251 -581 268 -576Q293 -570 313 -547Q334 -525 335 -482Q335 -440 310 -410Q285 -381 239 -380Q188 -381 160 -414Q132 -447 132 -495Q130 -548 170 -601Q211 -654 322 -658Q378 -661 446 -622Q513 -582 519 -458Q518 -413 509 -353Q499 -293 490 -244Q488 -236 491 -233Q493 -231 503 -227Q580 -196 625 -135Q670 -74 671 11Q670 110 606 180Q542 249 430 252Q411 251 407 254Q402 257 401 270ZM470 943Q495 943 512 923Q529 902 530 861Q527 778 473 710Q419 643 356 591Q351 586 348 588Q344 589 343 599Q340 619 339 643Q337 667 337 691Q340 809 381 876Q422 942 470 943ZM361 262Q364 249 361 245Q359 242 346 238Q279 214 241 162Q202 109 201 44Q202 -24 233 -70Q264 -115 316 -133Q322 -135 330 -137Q337 -139 343 -139Q349 -139 352 -136Q355 -133 355 -128Q355 -123 350 -120Q346 -117 340 -115Q308 -101 288 -72Q269 -43 268 -8Q269 35 295 66Q322 96 368 109Q380 112 383 111Q387 109 388 101L438 -197Q440 -205 437 -207Q435 -209 424 -211Q412 -213 398 -215Q383 -216 368 -216Q235 -214 158 -150Q82 -86 80 20Q78 64 95 123Q113 181 173 252Q218 301 254 334Q291 366 326 394Q333 400 336 399Q339 398 340 390ZM430 103Q428 112 430 115Q432 118 441 117Q503 110 545 66Q587 21 589 -46Q588 -94 563 -130Q538 -167 495 -188Q486 -193 483 -192Q480 -191 479 -182Z"/>
  </g>
  <line x1="80" y1="123" x2="112" y2="123" stroke="#555" stroke-width="1.0" opacity="0.35"/>
  <ellipse cx="94" cy="78" rx="10.5" ry="6.5" transform="rotate(-20,94,78)" fill="#9878b8"/>
  <ellipse cx="94" cy="93" rx="10.5" ry="6.5" transform="rotate(-20,94,93)" fill="#c89040"/>
  <ellipse cx="94" cy="108" rx="10.5" ry="6.5" transform="rotate(-20,94,108)" fill="#c0707e"/>
  <ellipse cx="94" cy="123" rx="10.5" ry="6.5" transform="rotate(-20,94,123)" fill="#3da8a8"/>
  <line x1="104" y1="42" x2="104" y2="125" stroke="#555" stroke-width="2.0"/>
  <path d="M105,78 Q111,69 117,78 Q123,87 129,78 Q135,69 141,78 Q147,87 153,78 Q159,69 165,78 Q171,87 177,78 Q183,69 189,78 Q195,87 201,78 Q207,69 213,78 Q219,87 225,78" fill="none" stroke="#9878b8" stroke-width="1.8" stroke-linecap="round"/>
  <path d="M105,93 Q115,80 125,93 Q135,106 145,93 Q155,80 165,93 Q175,106 185,93 Q195,80 205,93 Q215,106 225,93" fill="none" stroke="#c89040" stroke-width="1.8" stroke-linecap="round"/>
  <path d="M105,108 Q112.5,97 120,108 Q127.5,119 135,108 Q142.5,97 150,108 Q157.5,119 165,108 Q172.5,97 180,108 Q187.5,119 195,108 Q202.5,97 210,108 Q217.5,119 225,108" fill="none" stroke="#c0707e" stroke-width="1.8" stroke-linecap="round"/>
  <path d="M105,123 Q120,106 135,123 Q150,140 165,123 Q180,106 195,123 Q210,140 225,123" fill="none" stroke="#3da8a8" stroke-width="2.2" stroke-linecap="round"/>
</svg>
