<svg xmlns="http://www.w3.org/2000/svg" width="300" height="185" viewBox="0 0 300 185">
  <g fill="#555">
    <g transform="translate(76.7,28) scale(0.01367,-0.01367)">
      <path d="M24 23Q59 181 65 277L73 285H107L115 277V116Q205 39 312 39Q360 39 405.0 55.0Q450 71 480.0 98.5Q510 126 528.0 171.5Q546 217 546 264Q546 296 533.5 326.0Q521 356 491.5 374.5Q462 393 373 409Q283 425 246.0 435.5Q209 446 174.0 472.0Q139 498 118.5 540.0Q98 582 98 631Q98 698 129.5 752.5Q161 807 223.0 855.0Q285 903 351.5 935.0Q418 967 498 967Q616 967 697 919L701 908Q684 850 679 803L667 691L659 683H628L619 691Q619 750 616 806Q546 883 427 883Q333 883 276.0 828.5Q219 774 219 698Q219 636 257.0 600.0Q295 564 401 548Q496 534 536.0 524.0Q576 514 610.0 490.5Q644 467 663.5 429.5Q683 392 683 345Q683 289 661.5 235.5Q640 182 600.5 137.0Q561 92 488.0 43.5Q415 -5 359.0 -23.0Q303 -41 240 -41Q139 -41 28 12Z"/>
    </g>
    <g transform="translate(89.1,28) scale(0.01367,-0.01367)">
      <path d="M548 222 559 199 556 187Q517 153 420.5 83.5Q324 14 281.5 -9.5Q239 -33 208 -33Q179 -33 161.5 -6.0Q144 21 144 71Q144 130 178 282Q217 458 278 783L115 779L108 787L111 804L119 812Q226 850 291 885Q310 973 343 1230Q450 1275 500 1302L524 1284L485 1131Q478 1102 432 873Q477 870 505 870Q604 870 645 884L655 876L632 778Q595 778 414 783Q303 250 303 155Q303 109 341 109Q360 109 391.5 125.5Q423 142 501 199L536 226Z"/>
    </g>
    <g transform="translate(99.9,28) scale(0.01367,-0.01367)">
      <path d="M674 214 685 189 683 176Q437 -32 266 -32Q210 -32 152.0 -1.5Q94 29 65.5 86.0Q37 143 37 232Q37 357 78.5 498.5Q120 640 161.5 707.5Q203 775 286.0 834.5Q369 894 443.5 930.5Q518 967 588 967Q664 967 712.0 927.0Q760 887 760 816Q760 735 714.0 666.5Q668 598 546.0 537.0Q424 476 254 437L207 426Q187 330 187 266Q187 176 227.0 123.0Q267 70 339 70Q474 70 663 218ZM214 475Q319 494 413.5 534.5Q508 575 558.5 642.5Q609 710 609 780Q609 834 582.0 860.0Q555 886 517 886Q475 886 418.5 862.0Q362 838 318.5 774.0Q275 710 214 475ZM487 1029ZM302 -109Z"/>
    </g>
    <g transform="translate(112.3,28) scale(0.01367,-0.01367)">
      <path d="M107 -20 92 -3 150 205Q180 315 207.5 445.5Q235 576 246.5 660.5Q258 745 258 775Q258 827 229 827Q215 827 187.5 813.0Q160 799 84 750L72 754L62 776L65 791Q302 964 379 964Q423 964 423 914Q423 895 417.5 858.5Q412 822 355 555Q493 751 639.0 856.5Q785 962 877 962Q926 962 926 917Q926 875 916.0 818.0Q906 761 857 552Q1000 751 1162.5 857.0Q1325 963 1415 963Q1464 963 1464 913Q1464 845 1365 478Q1289 199 1289 140Q1289 99 1318 99Q1334 99 1361.5 112.0Q1389 125 1477 188L1487 184L1498 159L1495 146Q1450 110 1371.5 56.5Q1293 3 1253.0 -14.5Q1213 -32 1187 -32Q1158 -32 1141.0 -10.5Q1124 11 1124 45Q1124 74 1128.5 97.5Q1133 121 1157 208Q1193 336 1240.5 538.0Q1288 740 1288 797Q1288 815 1278.0 823.5Q1268 832 1256 832Q1230 832 1170.5 800.0Q1111 768 1033.0 691.0Q955 614 905.5 536.0Q856 458 822.0 341.0Q788 224 750 5Q704 -2 611 -23L596 -11Q675 273 718.0 490.5Q761 708 761 786Q761 829 732 829Q703 829 646.0 797.5Q589 766 506.5 677.0Q424 588 373.5 483.0Q323 378 291.0 230.0Q259 82 245 7Q167 -5 107 -20Z"/>
    </g>
    <g transform="translate(135.6,28) scale(0.01367,-0.01367)">
      <path d="M107 -20 92 -3 150 205Q180 315 207.5 445.5Q235 576 246.5 660.5Q258 745 258 775Q258 827 229 827Q215 827 187.5 813.0Q160 799 84 750L72 754L62 776L65 791Q302 964 379 964Q423 964 423 914Q423 895 417.5 858.5Q412 822 355 555Q493 751 639.0 856.5Q785 962 877 962Q926 962 926 917Q926 875 916.0 818.0Q906 761 857 552Q1000 751 1162.5 857.0Q1325 963 1415 963Q1464 963 1464 913Q1464 845 1365 478Q1289 199 1289 140Q1289 99 1318 99Q1334 99 1361.5 112.0Q1389 125 1477 188L1487 184L1498 159L1495 146Q1450 110 1371.5 56.5Q1293 3 1253.0 -14.5Q1213 -32 1187 -32Q1158 -32 1141.0 -10.5Q1124 11 1124 45Q1124 74 1128.5 97.5Q1133 121 1157 208Q1193 336 1240.5 538.0Q1288 740 1288 797Q1288 815 1278.0 823.5Q1268 832 1256 832Q1230 832 1170.5 800.0Q1111 768 1033.0 691.0Q955 614 905.5 536.0Q856 458 822.0 341.0Q788 224 750 5Q704 -2 611 -23L596 -11Q675 273 718.0 490.5Q761 708 761 786Q761 829 732 829Q703 829 646.0 797.5Q589 766 506.5 677.0Q424 588 373.5 483.0Q323 378 291.0 230.0Q259 82 245 7Q167 -5 107 -20Z"/>
    </g>
    <g transform="translate(158.9,28) scale(0.01367,-0.01367)">
      <path d="M840 196 847 169 843 157Q633 -24 557 -24Q507 -24 507 40Q507 71 513.5 118.5Q520 166 533 223L558 330L573 389L567 392Q418 180 288.5 74.0Q159 -32 107 -32Q37 -32 37 139Q37 246 69.5 382.0Q102 518 149.0 634.0Q196 750 224.5 786.5Q253 823 319.5 870.0Q386 917 444.0 942.0Q502 967 573 967Q660 967 758 931L822 969L844 951Q841 936 802 801L756 631L731 532Q704 426 681.0 310.5Q658 195 658 153Q658 113 685 113Q702 113 730.0 128.0Q758 143 831 199ZM671 833Q595 868 507 868Q434 868 377 841Q356 825 334.0 784.5Q312 744 272.0 633.5Q232 523 207.0 397.5Q182 272 182 198Q182 143 191.5 127.0Q201 111 220 111Q256 111 361.0 208.0Q466 305 538.5 433.0Q611 561 658 775ZM577 1029ZM392 -109Z"/>
    </g>
  </g>
  <line x1="18" y1="48" x2="228" y2="48" stroke="#555" stroke-width="1.0" opacity="0.35"/>
  <line x1="18" y1="63" x2="228" y2="63" stroke="#555" stroke-width="1.0" opacity="0.35"/>
  <line x1="18" y1="78" x2="228" y2="78" stroke="#555" stroke-width="1.0" opacity="0.35"/>
  <line x1="18" y1="93" x2="228" y2="93" stroke="#555" stroke-width="1.0" opacity="0.35"/>
  <line x1="18" y1="108" x2="228" y2="108" stroke="#555" stroke-width="1.0" opacity="0.35"/>
  <g transform="translate(22,93) scale(0.056,-0.056)" fill="#555">
    <path d="M376 415Q375 424 376 427Q378 430 382 434Q465 510 518 605Q570 700 572 815Q572 881 555 942Q538 1002 507 1048Q495 1066 480 1081Q464 1097 455 1098Q444 1097 425 1082Q406 1067 390 1050Q335 987 313 903Q291 819 292 739Q292 695 296 651Q301 607 306 575Q308 567 307 562Q306 558 297 551Q184 463 95 350Q5 237 0 87Q0 -48 90 -148Q180 -247 364 -252Q382 -252 400 -250Q418 -249 433 -246Q441 -244 444 -245Q447 -246 448 -255Q458 -307 466 -363Q474 -419 475 -456Q471 -563 418 -594Q365 -625 316 -622Q276 -621 256 -612Q236 -603 236 -593Q236 -588 243 -584Q251 -581 268 -576Q293 -570 313 -547Q334 -525 335 -482Q335 -440 310 -410Q285 -381 239 -380Q188 -381 160 -414Q132 -447 132 -495Q130 -548 170 -601Q211 -654 322 -658Q378 -661 446 -622Q513 -582 519 -458Q518 -413 509 -353Q499 -293 490 -244Q488 -236 491 -233Q493 -231 503 -227Q580 -196 625 -135Q670 -74 671 11Q670 110 606 180Q542 249 430 252Q411 251 407 254Q402 257 401 270ZM470 943Q495 943 512 923Q529 902 530 861Q527 778 473 710Q419 643 356 591Q351 586 348 588Q344 589 343 599Q340 619 339 643Q337 667 337 691Q340 809 381 876Q422 942 470 943ZM361 262Q364 249 361 245Q359 242 346 238Q279 214 241 162Q202 109 201 44Q202 -24 233 -70Q264 -115 316 -133Q322 -135 330 -137Q337 -139 343 -139Q349 -139 352 -136Q355 -133 355 -128Q355 -123 350 -120Q346 -117 340 -115Q308 -101 288 -72Q269 -43 268 -8Q269 35 295 66Q322 96 368 109Q380 112 383 111Q387 109 388 101L438 -197Q440 -205 437 -207Q435 -209 424 -211Q412 -213 398 -215Q383 -216 368 -216Q235 -214 158 -150Q82 -86 80 20Q78 64 95 123Q113 181 173 252Q218 301 254 334Q291 366 326 394Q333 400 336 399Q339 398 340 390ZM430 103Q428 112 430 115Q432 118 441 117Q503 110 545 66Q587 21 589 -46Q588 -94 563 -130Q538 -167 495 -188Q486 -193 483 -192Q480 -191 479 -182Z"/>
  </g>
  <line x1="80" y1="123" x2="112" y2="123" stroke="#555" stroke-width="1.0" opacity="0.35"/>
  <ellipse cx="94" cy="78" rx="10.5" ry="6.5" transform="rotate(-20,94,78)" fill="#9878b8"/>
  <ellipse cx="94" cy="93" rx="10.5" ry="6.5" transform="rotate(-20,94,93)" fill="#c89040"/>
  <ellipse cx="94" cy="108" rx="10.5" ry="6.5" transform="rotate(-20,94,108)" fill="#c0707e"/>
  <ellipse cx="94" cy="123" rx="10.5" ry="6.5" transform="rotate(-20,94,123)" fill="#3da8a8"/>
  <line x1="104" y1="42" x2="104" y2="125" stroke="#555" stroke-width="2.0"/>
  <path d="M105,78 Q111,69 117,78 Q123,87 129,78 Q135,69 141,78 Q147,87 153,78 Q159,69 165,78 Q171,87 177,78 Q183,69 189,78 Q195,87 201,78 Q207,69 213,78 Q219,87 225,78" fill="none" stroke="#9878b8" stroke-width="1.8" stroke-linecap="round"/>
  <path d="M105,93 Q115,80 125,93 Q135,106 145,93 Q155,80 165,93 Q175,106 185,93 Q195,80 205,93 Q215,106 225,93" fill="none" stroke="#c89040" stroke-width="1.8" stroke-linecap="round"/>
  <path d="M105,108 Q112.5,97 120,108 Q127.5,119 135,108 Q142.5,97 150,108 Q157.5,119 165,108 Q172.5,97 180,108 Q187.5,119 195,108 Q202.5,97 210,108 Q217.5,119 225,108" fill="none" stroke="#c0707e" stroke-width="1.8" stroke-linecap="round"/>
  <path d="M105,123 Q120,106 135,123 Q150,140 165,123 Q180,106 195,123 Q210,140 225,123" fill="none" stroke="#3da8a8" stroke-width="2.2" stroke-linecap="round"/>
</svg>